<?xml version="1.0" encoding="UTF-8"?>
<!DOCTYPE svg PUBLIC "-//W3C//DTD SVG 1.1//EN" "http://www.w3.org/Graphics/SVG/1.1/DTD/svg11.dtd">

<svg	xmlns="http://www.w3.org/2000/svg"
		version="1.1"
		xmlns:xlink="http://www.w3.org/1999/xlink"
		viewBox="0,0,24,24">

	<title>Icon Clip Reset</title>

	<style>
		.icon { fill: #000; }
	</style>
	<defs>
		<g id="clipReset" transform="translate(4,4)">
			<path d="M 1,1 l 0,2 1,0 0,-1 1,0 0,-1 -2,0 Z" />
			<path d="M 1,4 l 0,1 1,0 0,-1 -1,0 Z" />
			<path d="M 1,11 l 0,1 1,0 0,-1 -1,0 Z" />
			<path d="M 1,13 l 0,2 2,0 0,-1 -1,0 0,-1 -1,0 Z" />
			<path d="M 4,14 l 0,1 2,0 0,-1 -2,0 Z" />
			<path d="M 7,14 l 0,1 2,0 0,-1 -2,0 Z" />
			<path d="M 10,14 l 0,1 2,0 0,-1 -2,0 Z" />
			<path d="M 13,14 l 0,1 2,0 0,-2 -1,0 0,1 -1,0 Z" />
			<path d="M 4,1 l 0,1 2,0 0,-1 -2,0 Z" />
			<path d="M 7,1 l 0,1 2,0 0,-1 -2,0 Z" />
			<path d="M 10,1 l 0,1 2,0 0,-1 -2,0 Z" />
			<path d="M 13,1 l 0,1 1,0 0,1 1,0 0,-2 -2,0 Z" />
			<path d="M 14,4 l 0,1 1,0 0,-1 -1,0 Z" />
			<path d="M 14,11 l 0,1 1,0 0,-1 -1,0 Z" />
			<!--<text style="font-family: sans-serif; font-weight: bold; font-size: 4.5;" x="0.5" y="9.5">RESET</text>-->
			<path d="m 0.82958984,9.5 0,-3.2211914 1.36889646,0 c 0.3442363,3.2e-6 0.5939919,0.0293 0.7492676,0.087891 0.1567357,0.057132 0.2819797,0.159671 0.3757324,0.3076172 0.093747,0.1479519 0.1406221,0.3171412 0.140625,0.5075684 C 3.4641084,7.4235861 3.3930635,7.623537 3.2509766,7.7817383 3.1088841,7.9384781 2.896482,8.037355 2.6137695,8.0783691 c 0.1406228,0.082033 0.2563453,0.1721204 0.347168,0.2702637 0.092283,0.098146 0.2160618,0.2724618 0.3713379,0.5229492 L 3.7255859,9.5 2.9477539,9.5 2.4775391,8.7990723 C 2.3105451,8.5485849 2.1962874,8.3911144 2.1347656,8.3266602 2.0732406,8.2607434 2.0080551,8.2160657 1.939209,8.192627 1.87036,8.1677259 1.7612292,8.1552748 1.6118164,8.1552734 l -0.1318359,0 0,1.3447266 -0.65039066,0 m 0.65039066,-1.8588867 0.4812011,0 c 0.31201,1.8e-6 0.506834,-0.013182 0.5844727,-0.039551 C 2.6232889,7.5751972 2.6840798,7.5297871 2.7280273,7.465332 2.7719704,7.400881 2.793943,7.3203147 2.7939453,7.2236328 2.793943,7.1152368 2.7646462,7.0280786 2.7060547,6.9621582 2.6489236,6.894778 2.5676249,6.8522976 2.4621582,6.8347168 2.4094219,6.8273953 2.251219,6.8237331 1.9875488,6.8237305 l -0.5075683,0 0,0.8173828" />
			<path d="m 4.0793457,9.5 0,-3.2211914 2.3884277,0 0,0.5449219 -1.7380371,0 0,0.7141113 1.6171875,0 0,0.5427246 -1.6171875,0 0,0.876709 1.7995606,0 0,0.5427246 -2.4499512,0" />
			<path d="m 6.9204102,8.4519043 0.6328125,-0.061523 c 0.038085,0.2124032 0.1149893,0.3684089 0.2307128,0.4680175 0.1171864,0.09961 0.2746569,0.1494146 0.4724122,0.1494141 0.2094709,5e-7 0.3669415,-0.043945 0.4724121,-0.1318359 C 8.8356913,8.7866218 8.889158,8.682618 8.8891602,8.5639648 8.889158,8.487794 8.866453,8.4233409 8.8210449,8.3706055 8.7770976,8.3164074 8.6994609,8.2695325 8.5881348,8.2299805 8.5119611,8.2036146 8.3383773,8.1567396 8.0673828,8.0893555 7.718749,8.0029312 7.4741204,7.8967301 7.3334961,7.770752 7.1357418,7.5935078 7.036865,7.3774435 7.0368652,7.1225586 7.036865,6.9584986 7.0830075,6.8054226 7.175293,6.6633301 7.2690425,6.5197784 7.4030755,6.4106476 7.5773926,6.3359375 7.7531728,6.2612337 7.9648425,6.2238802 8.2124023,6.223877 8.6166974,6.2238802 8.9206521,6.3125032 9.1242676,6.4897461 9.3293431,6.666995 9.437009,6.903567 9.4472656,7.1994629 L 8.796875,7.2280273 C 8.769041,7.0625024 8.7089824,6.9438502 8.6166992,6.8720703 8.5258771,6.7988308 8.3889144,6.7622098 8.2058105,6.762207 c -0.1889661,2.8e-6 -0.3369151,0.038821 -0.4438476,0.1164551 -0.068849,0.049807 -0.1032724,0.1164576 -0.1032715,0.1999512 -9e-7,0.076174 0.032226,0.1413597 0.09668,0.1955566 0.08203,0.06885 0.2812487,0.1406271 0.5976562,0.2153321 0.3164044,0.074709 0.5500467,0.1523456 0.7009278,0.2329101 0.1523413,0.079103 0.2709935,0.188234 0.355957,0.3273926 0.086423,0.1376966 0.1296359,0.3083507 0.1296387,0.5119629 -2.8e-6,0.184571 -0.051272,0.3574224 -0.1538086,0.5185547 -0.1025416,0.161133 -0.247561,0.2812501 -0.4350586,0.3603515 -0.187502,0.077637 -0.4211444,0.116455 -0.7009277,0.1164551 -0.4072277,-1e-7 -0.7199715,-0.09375 -0.9382325,-0.28125 C 7.0932614,9.0869145 6.9628904,8.8122565 6.9204102,8.4519043" />
			<path d="m 10.091064,9.5 0,-3.2211914 2.388428,0 0,0.5449219 -1.738037,0 0,0.7141113 1.617188,0 0,0.5427246 -1.617188,0 0,0.876709 1.799561,0 0,0.5427246 -2.449952,0" />
			<path d="m 13.822021,9.5 0,-2.6762695 -0.95581,0 0,-0.5449219 2.559814,0 0,0.5449219 -0.953613,0 0,2.6762695 -0.650391,0" />
		</g>
	</defs>

	<use xlink:href="#clipReset" class="icon" />

</svg>

