<?xml version="1.0" encoding="UTF-8"?>
<!DOCTYPE svg PUBLIC "-//W3C//DTD SVG 1.1//EN" "http://www.w3.org/Graphics/SVG/1.1/DTD/svg11.dtd">

<svg	xmlns="http://www.w3.org/2000/svg"
		version="1.1"
		xmlns:xlink="http://www.w3.org/1999/xlink"
		viewBox="0,0,24,24">

	<title>Icon Clip Drag</title>

	<style>
		.icon { fill: #000; }
	</style>
	<defs>
		<g id="clipDrag" transform="translate(4,4)">
			<path d="M 1 1 L 1 3 L 2 3 L 2 2 L 3 2 L 3 1 L 1 1 z M 4 1 L 4 2 L 6 2 L 6 1 L 4 1 z M 7 1 L 7 2 L 9 2 L 9 1 L 7 1 z M 10 1 L 10 2 L 12 2 L 12 1 L 10 1 z M 13 1 L 13 2 L 14 2 L 14 3 L 15 3 L 15 1 L 13 1 z M 6 3.25 C 5.8333333 3.25 5.6482163 3.3517837 5.5 3.5 C 5.3517837 3.6482163 5.25 3.8333333 5.25 4 L 5.25 8.90625 L 5.25 9 L 5.25 11 L 4.75 11 L 4.75 9.125 C 4.2788979 8.653979 3.8761062 8.25 3 8.25 C 2.8333333 8.25 2.6482163 8.351784 2.5 8.5 C 2.3628999 8.6371 2.2937082 8.810935 2.28125 8.96875 L 4.21875 11.875 L 4.25 11.90625 L 5.25 14.90625 L 5.25 14.96875 L 5.25 15 L 5.25 15.75 L 11.8125 15.75 L 12.75 12 L 12.75 11.9375 L 12.75 9 C 12.75 8.833333 12.648216 8.648216 12.5 8.5 C 12.351784 8.351784 12.166667 8.25 12 8.25 C 11.833333 8.25 11.648216 8.351784 11.5 8.5 C 11.351784 8.648216 11.25 8.833333 11.25 9 L 11.25 10 L 10.75 10 L 10.75 9 L 10.75 8 C 10.75 7.833333 10.648216 7.648216 10.5 7.5 C 10.351784 7.351784 10.166667 7.25 10 7.25 C 9.833333 7.25 9.648216 7.351784 9.5 7.5 C 9.351784 7.648216 9.25 7.833333 9.25 8 L 9.25 9 L 8.75 9 L 8.75 8 L 8.75 7 C 8.75 6.833333 8.648216 6.648216 8.5 6.5 C 8.351784 6.351784 8.166667 6.25 8 6.25 C 7.833333 6.25 7.648216 6.351784 7.5 6.5 C 7.351784 6.648216 7.25 6.833333 7.25 7 L 7.25 9 L 6.75 9 L 6.75 7 L 6.75 4 C 6.75 3.8333333 6.648216 3.6482163 6.5 3.5 C 6.351784 3.3517837 6.166667 3.25 6 3.25 z M 1 4 L 1 6 L 2 6 L 2 4 L 1 4 z M 14 4 L 14 6 L 15 6 L 15 4 L 14 4 z M 1 7 L 1 9 L 2 9 L 2 7 L 1 7 z M 14 7 L 14 9 L 15 9 L 15 7 L 14 7 z M 1 10 L 1 12 L 2 12 L 2 10 L 1 10 z M 14 10 L 14 12 L 15 12 L 15 10 L 14 10 z M 1 13 L 1 15 L 3 15 L 3 14 L 2 14 L 2 13 L 1 13 z M 14 13 L 14 14 L 13 14 L 13 15 L 15 15 L 15 13 L 14 13 z" />
		</g>
	</defs>

	<use xlink:href="#clipDrag" class="icon" />

</svg>

