<?xml version="1.0" encoding="UTF-8"?>
<!DOCTYPE svg PUBLIC "-//W3C//DTD SVG 1.1//EN" "http://www.w3.org/Graphics/SVG/1.1/DTD/svg11.dtd">

<svg	xmlns="http://www.w3.org/2000/svg"
		version="1.1"
		xmlns:xlink="http://www.w3.org/1999/xlink"
		viewBox="0,0,24,24">

	<title>Icon Clip Drag</title>

	<style>
		.icon { fill: #000; }
	</style>
	<defs>
		<g id="clipDrag" transform="translate(4,4)">
			<path d="M 1,0 1,2 2,2 2,0 1,0 z m 13,0 0,2 1,0 0,-2 -1,0 z M 6,2.25 C 5.8333333,2.25 5.6482163,2.3517837 5.5,2.5 5.3517837,2.6482163 5.25,2.8333333 5.25,3 l 0,4.90625 0,0.09375 0,2 -0.5,0 0,-1.875 C 4.2788979,7.653979 3.8761062,7.25 3,7.25 2.8333333,7.25 2.6482163,7.351784 2.5,7.5 2.3628999,7.6371 2.2937082,7.810935 2.28125,7.96875 l 1.9375,2.90625 0.03125,0.03125 1,3 0,0.0625 0,0.03125 0,0.75 6.5625,0 L 12.75,11 12.75,10.9375 12.75,8 C 12.75,7.833333 12.648216,7.648216 12.5,7.5 12.351784,7.351784 12.166667,7.25 12,7.25 11.833333,7.25 11.648216,7.351784 11.5,7.5 11.351784,7.648216 11.25,7.833333 11.25,8 l 0,1 -0.5,0 0,-1 0,-1 C 10.75,6.833333 10.648216,6.648216 10.5,6.5 10.351784,6.351784 10.166667,6.25 10,6.25 9.833333,6.25 9.648216,6.351784 9.5,6.5 9.351784,6.648216 9.25,6.833333 9.25,7 l 0,1 -0.5,0 0,-1 0,-1 C 8.75,5.8333333 8.648216,5.6482163 8.5,5.5 8.351784,5.3517837 8.166667,5.25 8,5.25 7.833333,5.25 7.648216,5.3517837 7.5,5.5 7.351784,5.6482163 7.25,5.8333333 7.25,6 l 0,2 -0.5,0 0,-2 0,-3 C 6.75,2.8333333 6.648216,2.6482163 6.5,2.5 6.351784,2.3517837 6.166667,2.25 6,2.25 z M 1,3 1,5 3,5 3,4 2,4 2,3 1,3 z m 13,0 0,1 -1,0 0,1 2,0 0,-2 -1,0 z M 4,4 4,5 4.75,5 4.75,4 4,4 z m 3.25,0 0,1 L 9,5 9,4 7.25,4 z m 2.75,0 0,1 2,0 0,-1 -2,0 z" />
		</g>
	</defs>

	<use xlink:href="#clipDrag" class="icon" />

</svg>

