<?xml version="1.0" encoding="UTF-8"?>
<!DOCTYPE svg PUBLIC "-//W3C//DTD SVG 1.1//EN" "http://www.w3.org/Graphics/SVG/1.1/DTD/svg11.dtd">

<svg	xmlns="http://www.w3.org/2000/svg"
		version="1.1"
		xmlns:xlink="http://www.w3.org/1999/xlink"
		viewBox="0,0,24,24">

	<title>Icon Languages</title>

	<style>
		.icon { fill: #000; }
	</style>
	<defs>
		<g id="languages" transform="translate(4,4)">
			<path d="M 4 2 C 3.3332012 2 2.6438924 2.2345059 1.71875 2.6875 L 1.375 4.03125 C 2.1564205 3.6813994 2.8357265 3.5 3.5 3.5 C 4.3055556 3.5 5.1100929 3.7737964 6.125 4.28125 C 7.1100929 4.7737964 7.8055556 5 8.5 5 C 9.1718512 5 9.8461435 4.7722962 10.78125 4.3125 L 11.15625 2.875 C 10.384096 3.2196357 9.6603018 3.5 9 3.5 C 8.1944444 3.5 7.3899071 3.2262036 6.375 2.71875 C 5.3899071 2.2262036 4.6944444 2 4 2 z M 3.5 4 C 2.8281488 4 2.1538565 4.2277038 1.21875 4.6875 L 0.875 6.03125 C 1.6564205 5.6813994 2.3357265 5.5 3 5.5 C 3.8055556 5.5 4.6100929 5.7737964 5.625 6.28125 C 6.15918 6.54834 6.5901315 6.7268958 7 6.84375 C 7.5289689 6.6598313 8.0176588 6.5625 8.5 6.5625 C 8.8177778 6.5625 9.1384099 6.6082632 9.46875 6.6875 C 9.7206251 6.5883399 9.985323 6.4580087 10.28125 6.3125 L 10.625 4.96875 C 9.8435796 5.3186006 9.1642735 5.5 8.5 5.5 C 7.6944444 5.5 6.8899071 5.2262036 5.875 4.71875 C 4.8899071 4.2262036 4.1944444 4 3.5 4 z M 3 6 C 2.3281488 6 1.6538565 6.2277038 0.71875 6.6875 L 0.34375 8.125 C 1.1159042 7.7803643 1.8396982 7.5 2.5 7.5 C 3.3055556 7.5 4.1100929 7.7737964 5.125 8.28125 C 5.2801859 8.3588429 5.4205613 8.4042198 5.5625 8.46875 L 5.8125 7.4375 L 5.84375 7.375 L 5.90625 7.3125 C 6.0393571 7.2459464 6.1553861 7.1825304 6.28125 7.125 C 5.9946497 7.0122728 5.6972515 6.8798758 5.375 6.71875 C 4.3899071 6.2262036 3.6944444 6 3 6 z M 8.5 7 C 7.8332012 7 7.1438924 7.2345059 6.21875 7.6875 L 4.84375 13.125 C 5.6159042 12.780364 6.3396982 12.5 7 12.5 C 7.7172543 12.5 8.4476449 12.71921 9.3125 13.125 L 10.6875 7.625 C 9.8068163 7.2008112 9.1462852 7 8.5 7 z M 11.1875 7.875 L 9.8125 13.375 C 10.693184 13.799189 11.353715 14 12 14 C 12.666799 14 13.356108 13.765494 14.28125 13.3125 L 15.65625 7.875 C 14.884096 8.2196357 14.160302 8.5 13.5 8.5 C 12.782745 8.5 12.052355 8.2807896 11.1875 7.875 z" />
		</g>
	</defs>

	<use xlink:href="#languages" class="icon" />

</svg>

