<?xml version="1.0" encoding="UTF-8"?>
<!DOCTYPE svg PUBLIC "-//W3C//DTD SVG 1.1//EN" "http://www.w3.org/Graphics/SVG/1.1/DTD/svg11.dtd">

<svg	xmlns="http://www.w3.org/2000/svg"
		version="1.1"
		xmlns:xlink="http://www.w3.org/1999/xlink"
		viewBox="0,0,24,24">

	<title>Icon Layer C</title>

	<style>
		.icon { fill: #000; }
	</style>
	<defs>
		<g id="layerC" transform="translate(4,4)">
			<path d="M 3,0 l -3,3 2,0 0,10 -2,0 3,3 3,-3 -2,0 0,-10 2,0 -3,-3 Z" />
			<path d="M 8,0 l 0,1 8,0 0,-1 -8,0 Z" />
			<path d="M 8,2 l 0,1 8,0 0,-1 -8,0 Z" />
			<path d="M 8,15 l 0,1 8,0 0,-1 -8,0 Z" />
			<!--<text style="font-family: sans-serif; font-weight: bold; font-size: 12;" x="7.5" y="13.5">C</text>-->
			<path d="m 13.869141,10.341797 1.68164,0.533203 c -0.25782,0.937502 -0.687507,1.634767 -1.289062,2.091797 -0.597663,0.453125 -1.357428,0.679687 -2.279297,0.679687 -1.140628,0 -2.0781275,-0.388671 -2.8125001,-1.166015 C 8.4355459,11.699221 8.0683588,10.632815 8.0683594,9.28125 8.0683588,7.8515681 8.4374991,6.7421943 9.1757813,5.953125 9.9140601,5.1601646 10.884762,4.7636806 12.087891,4.7636719 c 1.050775,8.7e-6 1.90429,0.3105553 2.560547,0.9316406 0.390617,0.3671949 0.683585,0.8945382 0.878906,1.5820312 L 13.810547,7.6875 C 13.708978,7.2421938 13.496088,6.8906316 13.171875,6.6328125 12.851557,6.3750071 12.460933,6.246101 12,6.2460937 c -0.636723,7.3e-6 -1.1543,0.2285227 -1.552734,0.6855469 -0.394534,0.4570374 -0.5917996,1.197271 -0.5917972,2.2207032 -2.4e-6,1.0859412 0.1953102,1.8593772 0.5859372,2.3203122 0.390622,0.460939 0.898434,0.691408 1.523438,0.691407 0.460932,10e-7 0.857416,-0.146483 1.189453,-0.439454 0.332025,-0.292966 0.570306,-0.753903 0.714844,-1.382812" />
		</g>
	</defs>

	<use xlink:href="#layerC" class="icon" />

</svg>

