<?xml version="1.0" encoding="UTF-8"?>
<!DOCTYPE svg PUBLIC "-//W3C//DTD SVG 1.1//EN" "http://www.w3.org/Graphics/SVG/1.1/DTD/svg11.dtd">

<svg	xmlns="http://www.w3.org/2000/svg"
		version="1.1"
		xmlns:xlink="http://www.w3.org/1999/xlink"
		viewBox="0,0,24,24">

	<title>Icon Layer D</title>

	<style>
		.icon { fill: #000; }
	</style>
	<defs>
		<g id="layerD" transform="translate(4,4)">
			<path d="M 3,0 l -3,3 2,0 0,10 -2,0 3,3 3,-3 -2,0 0,-10 2,0 -3,-3 Z" />
			<path d="M 8,0 l 0,1 8,0 0,-1 -8,0 Z" />
			<path d="M 8,2 l 0,1 8,0 0,-1 -8,0 Z" />
			<path d="M 8,4 l 0,1 8,0 0,-1 -8,0 Z" />
			<!--<text style="font-family: sans-serif; font-weight: bold; font-size: 12;" x="7.5" y="15.5">D</text>-->
			<path d="m 8.3671875,6.9101562 3.1699215,0 c 0.714839,8.6e-6 1.259761,0.054696 1.634766,0.1640625 0.5039,0.1484458 0.93554,0.4121174 1.294922,0.7910157 0.359368,0.3789135 0.632805,0.8437568 0.820312,1.3945312 0.187492,0.5468807 0.281242,1.2226614 0.28125,2.0273434 -8e-6,0.707035 -0.0879,1.31641 -0.263671,1.828125 -0.214852,0.625002 -0.521492,1.130861 -0.919922,1.517579 -0.300788,0.292969 -0.707038,0.521484 -1.21875,0.685546 C 12.783198,15.439453 12.27148,15.5 11.630859,15.5 l -3.2636715,0 0,-8.5898438 m 1.7343755,1.4531251 0,5.6894527 1.294921,0 c 0.484371,2e-6 0.83398,-0.02734 1.048829,-0.08203 0.281244,-0.07031 0.513666,-0.189451 0.697265,-0.357422 0.187494,-0.167966 0.339838,-0.443357 0.457031,-0.826172 0.117182,-0.386715 0.175775,-0.912105 0.175782,-1.576171 -7e-6,-0.664058 -0.0586,-1.173823 -0.175782,-1.5292974 C 13.482416,9.326178 13.318354,9.0488346 13.107422,8.8496094 12.896479,8.6503975 12.628901,8.515632 12.304688,8.4453125 12.062495,8.3906321 11.587887,8.3632884 10.880859,8.3632813 l -0.779296,0" />
		</g>
	</defs>

	<use xlink:href="#layerD" class="icon" />

</svg>

