<?xml version="1.0" encoding="UTF-8"?>
<!DOCTYPE svg PUBLIC "-//W3C//DTD SVG 1.1//EN" "http://www.w3.org/Graphics/SVG/1.1/DTD/svg11.dtd">

<svg	xmlns="http://www.w3.org/2000/svg"
		version="1.1"
		xmlns:xlink="http://www.w3.org/1999/xlink"
		viewBox="0,0,24,24">

	<title>Icon View Reset</title>

	<style>
		.icon { fill: #000; }
	</style>
	<defs>
		<g id="viewReset" transform="translate(4,4)">
			<path d="M 8,0.5 C 5.25,0.5 2.5,2 0,5 5,11 11,11 16,5 13.5,2 10.75,0.5 8,0.5 z m -1.40625,0.90625 0.3125,0.8125 C 7.248098,2.083304 7.609949,2 8,2 9.656854,2 11,3.343146 11,5 11,6.656854 9.656854,8 8,8 6.343146,8 5,6.656854 5,5 5,4.609949 5.083304,4.248098 5.21875,3.90625 l -0.9375,-0.375 C 4.1024258,3.985114 4,4.48262 4,5 4,6.503833 4.835722,7.785555 6.0625,8.46875 4.2350755,7.988852 2.481833,6.852291 1,5 2.625,2.96875 4.5767822,1.7871094 6.59375,1.40625 z m 3.34375,0.125 C 11.764924,2.011148 13.518167,3.147709 15,5 13.518167,6.852291 11.764924,7.988852 9.9375,8.46875 11.164278,7.785555 12,6.503833 12,5 12,3.496167 11.164278,2.214445 9.9375,1.53125 z M 8,3 C 7.734213,3 7.482007,3.06212 7.25,3.15625 L 8,5 6.15625,4.25 C 6.06212,4.482007 6,4.734213 6,5 6,6.104569 6.89543,7 8,7 9.10457,7 10,6.104569 10,5 10,3.895431 9.10457,3 8,3 z" />
			<!--<text style="font-family: sans-serif; font-weight: bold; font-size: 4.5;" x="0.5" y="14">RESET</text>-->
			<path d="m 0.82958984,14 0,-3.221191 1.36889646,0 c 0.3442363,3e-6 0.5939919,0.0293 0.7492676,0.08789 0.1567357,0.05713 0.2819797,0.159671 0.3757324,0.307617 0.093747,0.147952 0.1406221,0.317142 0.140625,0.507569 -2.9e-6,0.241701 -0.071048,0.441652 -0.2131347,0.599853 -0.1420925,0.15674 -0.3544946,0.255617 -0.6372071,0.296631 0.1406228,0.08203 0.2563453,0.172121 0.347168,0.270264 0.092283,0.09815 0.2160618,0.272462 0.3713379,0.522949 L 3.7255859,14 2.9477539,14 2.4775391,13.299072 C 2.3105451,13.048585 2.1962874,12.891114 2.1347656,12.82666 2.0732406,12.760743 2.0080551,12.716066 1.939209,12.692627 1.87036,12.667726 1.7612292,12.655275 1.6118164,12.655273 l -0.1318359,0 0,1.344727 -0.65039066,0 m 0.65039066,-1.858887 0.4812011,0 c 0.31201,2e-6 0.506834,-0.01318 0.5844727,-0.03955 0.077635,-0.02637 0.1384255,-0.07178 0.182373,-0.136231 0.043943,-0.06445 0.065916,-0.145017 0.065918,-0.241699 -2.3e-6,-0.108396 -0.029299,-0.195554 -0.087891,-0.261475 -0.057131,-0.06738 -0.1384298,-0.10986 -0.2438965,-0.127441 -0.052736,-0.0073 -0.2109392,-0.01098 -0.4746094,-0.01099 l -0.5075683,0 0,0.817383" />
			<path d="m 4.0793457,14 0,-3.221191 2.3884277,0 0,0.544921 -1.7380371,0 0,0.714112 1.6171875,0 0,0.542724 -1.6171875,0 0,0.876709 1.7995606,0 0,0.542725 -2.4499512,0" />
			<path d="m 6.9204102,12.951904 0.6328125,-0.06152 c 0.038085,0.212403 0.1149893,0.368409 0.2307128,0.468017 0.1171864,0.09961 0.2746569,0.149415 0.4724122,0.149415 0.2094709,0 0.3669415,-0.04395 0.4724121,-0.131836 0.1069315,-0.08936 0.1603982,-0.193359 0.1604004,-0.312012 -2.2e-6,-0.07617 -0.022707,-0.140624 -0.068115,-0.19336 C 8.7770976,12.816407 8.6994609,12.769532 8.5881348,12.72998 8.5119611,12.703615 8.3383773,12.65674 8.0673828,12.589355 7.718749,12.502931 7.4741204,12.39673 7.3334961,12.270752 7.1357418,12.093508 7.036865,11.877444 7.0368652,11.622559 c -2e-7,-0.16406 0.046142,-0.317136 0.1384278,-0.459229 0.09375,-0.143552 0.2277825,-0.252682 0.4020996,-0.327392 0.1757802,-0.0747 0.3874499,-0.112058 0.6350097,-0.112061 0.4042951,3e-6 0.7082498,0.08863 0.9118653,0.265869 0.2050755,0.177249 0.3127414,0.413821 0.322998,0.709717 L 8.796875,11.728027 C 8.769041,11.562502 8.7089824,11.44385 8.6166992,11.37207 8.5258771,11.298831 8.3889144,11.26221 8.2058105,11.262207 c -0.1889661,3e-6 -0.3369151,0.03882 -0.4438476,0.116455 -0.068849,0.04981 -0.1032724,0.116458 -0.1032715,0.199951 -9e-7,0.07617 0.032226,0.14136 0.09668,0.195557 0.08203,0.06885 0.2812487,0.140627 0.5976562,0.215332 0.3164044,0.07471 0.5500467,0.152346 0.7009278,0.23291 0.1523413,0.0791 0.2709935,0.188234 0.355957,0.327393 0.086423,0.137696 0.1296359,0.30835 0.1296387,0.511963 -2.8e-6,0.184571 -0.051272,0.357422 -0.1538086,0.518554 -0.1025416,0.161133 -0.247561,0.28125 -0.4350586,0.360352 -0.187502,0.07764 -0.4211444,0.116455 -0.7009277,0.116455 -0.4072277,0 -0.7199715,-0.09375 -0.9382325,-0.28125 -0.218262,-0.188965 -0.348633,-0.463622 -0.3911132,-0.823975" />
			<path d="m 10.091064,14 0,-3.221191 2.388428,0 0,0.544921 -1.738037,0 0,0.714112 1.617188,0 0,0.542724 -1.617188,0 0,0.876709 1.799561,0 0,0.542725 -2.449952,0" />
			<path d="m 13.822021,14 0,-2.67627 -0.95581,0 0,-0.544921 2.559814,0 0,0.544921 -0.953613,0 0,2.67627 -0.650391,0" />
		</g>
	</defs>

	<use xlink:href="#viewReset" class="icon" />

</svg>

