<?xml version="1.0" encoding="UTF-8"?>
<!DOCTYPE svg PUBLIC "-//W3C//DTD SVG 1.1//EN" "http://www.w3.org/Graphics/SVG/1.1/DTD/svg11.dtd">

<svg	xmlns="http://www.w3.org/2000/svg"
		version="1.1"
		xmlns:xlink="http://www.w3.org/1999/xlink"
		viewBox="0,0,24,24">

	<title>Icon Visibility Moving Sheets</title>

	<style>
		.icon { fill: #000; }
	</style>
	<defs>
		<g id="visMS" transform="translate(4,4)">
			<path d="M 1,2 l 0,2 14,0 0,-2 -14,0 Z" />
			<path d="M 1,13 l 0,2 14,0 0,-2 -14,0 Z" />
			<path d="M 2,1 l 0,14 1,0 0,-14 -1,0 Z" />
			<path d="M 13,1 l 0,14 1,0 0,-14 -1,0 Z" />
			<path d="M 1,5 l 0,1 14,0 0,-1 -14,0 Z" />
			<path d="M 1,11 l 0,1 14,0 0,-1 -14,0 Z" />
			<path d="M 6,4 l 0,9 1,0 0,-9 -1,0 Z" />
			<path d="M 9,4 l 0,9 1,0 0,-9 -1,0 Z" />
			<path style="fill:#f83610;" d="M 4,7 l 0,1 8,0 0,-1 -8,0 Z" />
			<path style="fill:#f83610;" d="M 4,9 l 0,1 8,0 0,-1 -8,0 Z" />
		</g>
	</defs>

	<use xlink:href="#visMS" class="icon" />

</svg>

