<?xml version="1.0" encoding="UTF-8"?>
<!DOCTYPE svg PUBLIC "-//W3C//DTD SVG 1.1//EN" "http://www.w3.org/Graphics/SVG/1.1/DTD/svg11.dtd">

<svg	xmlns="http://www.w3.org/2000/svg"
		version="1.1"
		xmlns:xlink="http://www.w3.org/1999/xlink"
		viewBox="-1,-66,110,67">

	<title>Sheet_AE</title>

	<defs>
		<path id="hole12"   stepSize="5"  d="M 0,0 l 20,0 0,10 -20,0 0,-10 Z" />
		<path id="hole120"  stepSize="10" d="M 5,1 l 10,0 a 4,4,0,0,1,0,8 l -10,0 a 4,4,0,0,1,0,-8 Z" />
		<path id="hole210"  stepSize="10" d="M 1,15 l 0,-10 a 4,4,0,0,1,8,0 l 0,10 a 4,4,0,0,1,-8,0 Z" />
	</defs>

	<g style="stroke:black;" transform="scale(1,-1)">
		<path style="fill:#3d9ecb;"
			stepSize="10"
			d="M 0,20 l 0,20 59,0 5,25 20,0 5,-25 19,0 0,-20 -49,0 0,-10 11,0 0,-10 -21,0 0,20 -19,0 0,-10 -11,0 0,10 -19,0 Z" />
		<g style="fill:white;">
			<use xlink:href="#hole120" x="4"  y="25" />
			<use xlink:href="#hole12"  x="44" y="25" />
			<use xlink:href="#hole120" x="84" y="25" />
			<use xlink:href="#hole210" x="69" y="40" />
		</g>
	</g>

</svg>

