<?xml version="1.0" encoding="UTF-8"?>
<!DOCTYPE svg PUBLIC "-//W3C//DTD SVG 1.1//EN" "http://www.w3.org/Graphics/SVG/1.1/DTD/svg11.dtd">

<svg	xmlns="http://www.w3.org/2000/svg"
		version="1.1"
		xmlns:xlink="http://www.w3.org/1999/xlink"
		viewBox="-1,-72,303,73">

	<title>Sheet_AP</title>

	<defs>
		<circle id="hole220" cx="10" cy="10" r="6" />
		<path id="hole2238" stepSize="10" d="M 0,10 l 11,0 0,-5 a 4,4,0,0,1,8,0 l 0,15 -19,0 0,-10 Z" />
	</defs>

	<g style="stroke:black;" transform="scale(1,-1)">
		<path style="fill:#3d9ecb;"
			stepSize="10"
			d="M 0,0 l 0,10 16,0 a 6,6,0,0,1,0,12 l -16,0 0,9 56,0 40,15 0,11 15,0 5,-11 20,0 0,11 15,0 5,-11 20,0 0,11 15,0 5,-11 20,0 0,11 15,0 8,-18 24,0 8,32 30,0 0,-45 -70,0 0,-26 -231,0 Z" />
		<g style="fill:white;">
			<use xlink:href="#hole2238" x="76"  y="6"  />
			<use xlink:href="#hole2238" x="116" y="6"  />
			<use xlink:href="#hole2238" x="156" y="6"  />
			<use xlink:href="#hole2238" x="196" y="6"  />
			<use xlink:href="#hole220"  x="276" y="46" />
		</g>
	</g>

</svg>

