<?xml version="1.0" encoding="UTF-8"?>
<!DOCTYPE svg PUBLIC "-//W3C//DTD SVG 1.1//EN" "http://www.w3.org/Graphics/SVG/1.1/DTD/svg11.dtd">

<svg	xmlns="http://www.w3.org/2000/svg"
		version="1.1"
		xmlns:xlink="http://www.w3.org/1999/xlink"
		viewBox="-1,-140,41,141">

	<title>Sheet_BB</title>

	<defs>
		<path id="hole120"  stepSize="10" d="M 5,1 l 10,0 a 4,4,0,0,1,0,8 l -10,0 a 4,4,0,0,1,0,-8 Z" />
		<path id="hole210"  stepSize="10" d="M 1,15 l 0,-10 a 4,4,0,0,1,8,0 l 0,10 a 4,4,0,0,1,-8,0 Z" />
		<path id="hole2245" stepSize="10" d="M 0,0 l 10,0 0,11 10,0 0,8 -20,0 0,-19 Z" />
	</defs>

	<g style="stroke:black;" transform="scale(1,-1)">
		<path style="fill:#3d9ecb;"
			stepSize="9"
			d="M 3,0 l 0,39 11,0 15,25 0,25 -29,0 0,30 9,20 20,0 10,-30 0,-50 -4,-10 0,-49 -32,0 Z" />
		<g style="fill:white;">
			<use xlink:href="#hole2245" x="9"  y="14"  />
			<use xlink:href="#hole120"  x="4"  y="94"  />
			<use xlink:href="#hole210"  x="14" y="114" />
		</g>
	</g>

</svg>

