<?xml version="1.0" encoding="UTF-8"?>
<!DOCTYPE svg PUBLIC "-//W3C//DTD SVG 1.1//EN" "http://www.w3.org/Graphics/SVG/1.1/DTD/svg11.dtd">

<svg	xmlns="http://www.w3.org/2000/svg"
		version="1.1"
		xmlns:xlink="http://www.w3.org/1999/xlink"
		viewBox="-1,-36,262,37">

	<title>Sheet_BN</title>

	<defs>
		<circle id="hole220" cx="10" cy="10" r="6" />
		<path id="hole2227" stepSize="10" d="M 5,1 l 15,0 0,19 -10,0 0,-11 -5,0 a 4,4,0,0,1,0,-8 Z" />
	</defs>

	<g style="stroke:black;" transform="scale(1,-1)">
		<path style="fill:#3d9ecb;"
			stepSize="10"
			d="M 240,4 l -15,0 0,-4 -20,0 0,5 -20,0 0,-5 -20,0 0,5 -20,0 0,-5 -20,0 0,5 -20,0 0,-5 -20,0 0,5 -20,0 0,-5 -65,0 0,25 85,0 0,10 30,0 0,-10 10,0 0,10 30,0 0,-10 10,0 0,10 30,0 0,-10 10,0 0,10 30,0 0,-10 25,0 0,-25 -16,0 a 4,4,0,0,1,-4,4 Z" />
		<g style="fill:white;">
			<use xlink:href="#hole220"  x="0"   y="0"  />
			<use xlink:href="#hole2227" x="80"  y="10" />
			<use xlink:href="#hole2227" x="120" y="10" />
			<use xlink:href="#hole2227" x="160" y="10" />
			<use xlink:href="#hole2227" x="200" y="10" />
			<use xlink:href="#hole220"  x="240" y="0"  />
		</g>
	</g>

</svg>

