<?xml version="1.0" encoding="UTF-8"?>
<!DOCTYPE svg PUBLIC "-//W3C//DTD SVG 1.1//EN" "http://www.w3.org/Graphics/SVG/1.1/DTD/svg11.dtd">

<svg	xmlns="http://www.w3.org/2000/svg"
		version="1.1"
		xmlns:xlink="http://www.w3.org/1999/xlink"
		viewBox="-1,-46,182,47">

	<title>Sheet_CT</title>

	<defs>
		<path id="hole12"   stepSize="5"  d="M 0,0 l 20,0 0,10 -20,0 0,-10 Z" />
		<path id="hole120"  stepSize="10" d="M 5,1 l 10,0 a 4,4,0,0,1,0,8 l -10,0 a 4,4,0,0,1,0,-8 Z" />
		<path id="hole210"  stepSize="10" d="M 1,15 l 0,-10 a 4,4,0,0,1,8,0 l 0,10 a 4,4,0,0,1,-8,0 Z" />
	</defs>

	<g style="stroke:black;" transform="scale(1,-1)">
		<path style="fill:#3d9ecb;"
			stepSize="11"
			d="M 0,0 l 0,45 180,0 0,-45 -180,0 Z" />
		<g style="fill:white;">
			<use xlink:href="#hole210" x="5"   y="5"  />
			<use xlink:href="#hole210" x="85"  y="5"  />
			<use xlink:href="#hole210" x="165" y="5"  />
			<use xlink:href="#hole120" x="20"  y="30" />
			<use xlink:href="#hole12"  x="60"  y="30" />
			<use xlink:href="#hole12"  x="100" y="30" />
			<use xlink:href="#hole120" x="140" y="30" />
		</g>
	</g>

</svg>

