<?xml version="1.0" encoding="UTF-8"?>
<!DOCTYPE svg PUBLIC "-//W3C//DTD SVG 1.1//EN" "http://www.w3.org/Graphics/SVG/1.1/DTD/svg11.dtd">

<svg	xmlns="http://www.w3.org/2000/svg"
		version="1.1"
		xmlns:xlink="http://www.w3.org/1999/xlink"
		viewBox="-1,-141,272,142">

	<title>Sheet_DS</title>

	<defs>
		<circle id="hole110" cx="5"  cy="5"  r="4" />
		<circle id="hole220" cx="10" cy="10" r="6" />
		<path id="hole22"   stepSize="10" d="M 0,0 l 20,0 0,20 -20,0 0,-20 Z" />
		<path id="hole129"  stepSize="7"  d="M 0,0 l 20,0 0,10 -20,0 0,-10 Z" />
	</defs>

	<g style="stroke:black;" transform="scale(1,-1)">
		<path style="fill:#3d9ecb;"
			stepSize="10"
			d="M 0,20 l 0,110 10,10 11,0 0,-20 8,0 0,10 11,0 10,-10 0,-40 30,0 15,20 20,0 15,-20 100,0 20,-25 20,-25 0,-30 -30,0 0,20 -110,0 -15,-20 -20,0 -15,20 -30,0 -15,-20 -20,0 -15,20 Z" />
		<g style="fill:white;">
			<use xlink:href="#hole110" x="20"  y="5"  />
			<use xlink:href="#hole110" x="100" y="5"  />
			<use xlink:href="#hole110" x="20"  y="85" />
			<use xlink:href="#hole110" x="100" y="85" />
			<use xlink:href="#hole220" x="250" y="0" />
			<use xlink:href="#hole129" x="35"  y="25" />
			<use xlink:href="#hole129" x="75"  y="25" />
			<use xlink:href="#hole129" x="115" y="25" />
			<use xlink:href="#hole129" x="155" y="25" />
			<use xlink:href="#hole129" x="35"  y="65" />
			<use xlink:href="#hole129" x="75"  y="65" />
			<use xlink:href="#hole129" x="115" y="65" />
			<use xlink:href="#hole129" x="155" y="65" />
			<use xlink:href="#hole129" x="10"  y="50" />
			<use xlink:href="#hole22"  x="50"  y="40" />
			<use xlink:href="#hole22"  x="90"  y="40" />
			<use xlink:href="#hole22"  x="130" y="40" />
			<use xlink:href="#hole22"  x="170" y="40" />
		</g>
	</g>

</svg>

