<?xml version="1.0" encoding="UTF-8"?>
<!DOCTYPE svg PUBLIC "-//W3C//DTD SVG 1.1//EN" "http://www.w3.org/Graphics/SVG/1.1/DTD/svg11.dtd">

<svg	xmlns="http://www.w3.org/2000/svg"
		version="1.1"
		xmlns:xlink="http://www.w3.org/1999/xlink"
		viewBox="-1,-41,262,42">

	<title>Sheet_DU</title>

	<defs>
		<circle id="hole220" cx="10" cy="10" r="6" />
		<path id="hole225"  stepSize="10" d="M 0,0 l 20,0 0,19 -20,0 0,-19 Z" />
		<path id="hole322"  stepSize="10" d="M 0,0 l 20,0 0,30 -10,0 0,-10 -10,0 0,-20 Z" />
	</defs>

	<g style="stroke:black;" transform="scale(1,-1)">
		<path style="fill:#3d9ecb;"
			stepSize="13"
			d="M 0,0 l 0,30 35,0 0,10 30,0 0,-10 10,0 0,10 30,0 0,-10 10,0 0,10 30,0 0,-10 10,0 0,10 30,0 0,-10 10,0 0,10 30,0 0,-10 35,0 0,-30 -50,0 0,10 -27,0 0,-10 -53,0 0,10 -27,0 0,-10 -103,0 Z" />
		<g style="fill:white;">
			<use xlink:href="#hole220" x="0"   y="5" />
			<use xlink:href="#hole322" x="40"  y="5" />
			<use xlink:href="#hole225" x="80"  y="5" />
			<use xlink:href="#hole225" x="160" y="5" />
			<use xlink:href="#hole220" x="240" y="5" />
		</g>
	</g>

</svg>

