<?xml version="1.0" encoding="UTF-8"?>
<!DOCTYPE svg PUBLIC "-//W3C//DTD SVG 1.1//EN" "http://www.w3.org/Graphics/SVG/1.1/DTD/svg11.dtd">

<svg	xmlns="http://www.w3.org/2000/svg"
		version="1.1"
		xmlns:xlink="http://www.w3.org/1999/xlink"
		viewBox="-1,-101,262,102">

	<title>Sheet_Z0A</title>

	<defs>
		<circle id="hole110" cx="5"  cy="5"  r="4" />
		<circle id="hole220" cx="10" cy="10" r="6" />
	</defs>

	<g style="stroke:black;" transform="scale(1,-1)">
		<path style="fill:#3d9ecb;"
			stepSize="10"
			d="M 20,0 l 0,20 -20,0 0,20 20,0 0,60 220,0 0,-60 20,0 0,-20 -20,0 0,-20 -220,0 Z" />
		<g style="fill:white;">
			<use xlink:href="#hole110" x="25"  y="5"  />
			<use xlink:href="#hole110" x="65"  y="5"  />
			<use xlink:href="#hole110" x="105" y="5"  />
			<use xlink:href="#hole110" x="145" y="5"  />
			<use xlink:href="#hole110" x="185" y="5"  />
			<use xlink:href="#hole110" x="225" y="5"  />
			<use xlink:href="#hole220" x="0"   y="20" />
			<use xlink:href="#hole220" x="240" y="20" />
			<use xlink:href="#hole110" x="65"  y="85" />
			<use xlink:href="#hole110" x="105" y="85" />
			<use xlink:href="#hole110" x="145" y="85" />
			<use xlink:href="#hole110" x="185" y="85" />
			<use xlink:href="#hole110" x="225" y="85" />
		</g>
	</g>

</svg>

