<?xml version="1.0" encoding="UTF-8"?>
<!DOCTYPE svg PUBLIC "-//W3C//DTD SVG 1.1//EN" "http://www.w3.org/Graphics/SVG/1.1/DTD/svg11.dtd">

<svg	xmlns="http://www.w3.org/2000/svg"
		version="1.1"
		xmlns:xlink="http://www.w3.org/1999/xlink"
		viewBox="-1,-101,102,102">

	<title>Sheet_??</title>

	<defs>
		<circle id="hole110" cx="5"  cy="5"  r="4" />
		<circle id="hole220" cx="10" cy="10" r="6" />
		<path id="hole12"   stepSize="5"  d="M 0,0 l 20,0 0,10 -20,0 0,-10 Z" />
		<path id="hole22"   stepSize="10" d="M 0,0 l 20,0 0,20 -20,0 0,-20 Z" />
		<path id="hole32"   stepSize="10" d="M 0,0 l 20,0 0,30 -20,0 0,-30 Z" />
		<path id="hole120"  stepSize="10" d="M 5,1 l 10,0 a 4,4,0,0,1,0,8 l -10,0 a 4,4,0,0,1,0,-8 Z" />
		<path id="hole129"  stepSize="7"  d="M 0,0 l 20,0 0,10 -20,0 0,-10 Z" />
		<path id="hole210"  stepSize="10" d="M 1,15 l 0,-10 a 4,4,0,0,1,8,0 l 0,10 a 4,4,0,0,1,-8,0 Z" />
		<path id="hole224"  stepSize="10" d="M 0,0 l 10,0 0,10 10,0 0,10 -20,0 0,-20 Z" />
		<path id="hole225"  stepSize="10" d="M 0,0 l 20,0 0,19 -20,0 0,-19 Z" />
		<path id="hole230"  stepSize="10" d="M 10,4 l 10,0 a 6,6,0,0,1,0,12 l -10,0 a 6,6,0,0,1,0,-12 Z" />
		<path id="hole320"  stepSize="10" d="M 4,20 l 0,-10 a 6,6,0,0,1,12,0 l 0,10 a 6,6,0,0,1,-12,0 Z" />
		<path id="hole322"  stepSize="10" d="M 0,0 l 20,0 0,30 -10,0 0,-10 -10,0 0,-20 Z" />
		<path id="hole1306" stepSize="10" d="M 8,1 l 17,0 a 4,4,0,0,1,0,8 l -17,0 a 4,4,0,0,1,0,-8 Z" />
		<path id="hole1308" stepSize="10" d="M 5,1 l 17,0 a 4,4,0,0,1,0,8 l -17,0 a 4,4,0,0,1,0,-8 Z" />
		<path id="hole2227" stepSize="10" d="M 5,1 l 15,0 0,19 -10,0 0,-11 -5,0 a 4,4,0,0,1,0,-8 Z" />
		<path id="hole2228" stepSize="10" d="M 0,0 l 19,0 0,20 -8,0 0,-10 -11,0 0,-10 Z" />
		<path id="hole2238" stepSize="10" d="M 0,10 l 11,0 0,-5 a 4,4,0,0,1,8,0 l 0,15 -19,0 0,-10 Z" />
		<path id="hole2245" stepSize="10" d="M 0,0 l 10,0 0,11 10,0 0,8 -20,0 0,-19 Z" />
		<path id="hole2296" stepSize="10" d="M 0,0 l 20,0 0,20 -20,0 0,-9 10,0 1,-1 -1,-1 -10,0 0,-9 Z" />
		<path id="hole3367" stepSize="10" d="M 10,4 l 17,0 0,23 -23,0 0,-17 a 6,6,0,0,1,6,-6 Z" />
	</defs>

	<rect
		width="100"
		height="100"
		style="fill:yellow;stroke:red;"
		transform="scale(1,-1)"/>

	<g style="stroke:black;" transform="scale(1,-1)">
		<path style="fill:#3d9ecb;"
			stepSize="10"
			d="M 0,20 l 60,60 -60,0 0,20 100,0 0,-20 -60,-60 60,0 0,-20 -100,0 0,20 Z" />
		<g style="fill:white;">
			<use xlink:href="#hole120" x="5" y="5" />
		</g>
	</g>

</svg>

