<?xml version="1.0" encoding="UTF-8"?>
<!DOCTYPE svg PUBLIC "-//W3C//DTD SVG 1.1//EN" "http://www.w3.org/Graphics/SVG/1.1/DTD/svg11.dtd">

<svg	xmlns="http://www.w3.org/2000/svg"
		version="1.1"
		xmlns:xlink="http://www.w3.org/1999/xlink"
		viewBox="-1,-160,44,161">

	<title>Sheet_BC</title>

	<defs>
		<path id="hole32"   stepSize="10" d="M 0,0 l 20,0 0,30 -20,0 0,-30 Z" />
		<path id="hole120"  stepSize="10" d="M 5,1 l 10,0 a 4,4,0,0,1,0,8 l -10,0 a 4,4,0,0,1,0,-8 Z" />
	</defs>

	<g style="stroke:black;" transform="scale(1,-1)">
		<path style="fill:#3d9ecb;"
			stepSize="10"
			d="M 0,0 l 0,100 11,0 0,20 -8,0 0,20 7,0 0,19 32,0 0,-18 -10,0 0,-141 -32,0 Z" />
		<g style="fill:white;">
			<use xlink:href="#hole120" x="6" y="5"   />
			<use xlink:href="#hole32"  x="6" y="35"  />
			<use xlink:href="#hole120" x="6" y="85"  />
			<use xlink:href="#hole120" x="6" y="125" />
		</g>
	</g>

</svg>

