<?xml version="1.0" encoding="UTF-8"?>
<!DOCTYPE svg PUBLIC "-//W3C//DTD SVG 1.1//EN" "http://www.w3.org/Graphics/SVG/1.1/DTD/svg11.dtd">

<svg	xmlns="http://www.w3.org/2000/svg"
		version="1.1"
		xmlns:xlink="http://www.w3.org/1999/xlink"
		viewBox="-1,-55,70,56">

	<title>Sheet_BH</title>

	<defs>
		<path id="hole120"  stepSize="10" d="M 5,1 l 10,0 a 4,4,0,0,1,0,8 l -10,0 a 4,4,0,0,1,0,-8 Z" />
		<path id="hole210"  stepSize="10" d="M 1,15 l 0,-10 a 4,4,0,0,1,8,0 l 0,10 a 4,4,0,0,1,-8,0 Z" />
	</defs>

	<g style="stroke:black;" transform="scale(1,-1)">
		<path style="fill:#3d9ecb;"
			stepSize="10"
			d="M 0,25 l 0,20 19,0 5,9 6,0 0,-9 8,0 0,9 6,0 5,-9 19,0 0,-20 -19,0 -5,-25 -20,0 -5,25 -19,0 Z" />
		<g style="fill:white;">
			<use xlink:href="#hole210" x="29" y="5"  />
			<use xlink:href="#hole120" x="4"  y="30" />
			<use xlink:href="#hole120" x="44" y="30" />
		</g>
	</g>

</svg>

