<?xml version="1.0" encoding="UTF-8"?>
<!DOCTYPE svg PUBLIC "-//W3C//DTD SVG 1.1//EN" "http://www.w3.org/Graphics/SVG/1.1/DTD/svg11.dtd">

<svg	xmlns="http://www.w3.org/2000/svg"
		version="1.1"
		xmlns:xlink="http://www.w3.org/1999/xlink"
		viewBox="-1,-49,70,50">

	<title>Sheet_CF/DF</title>

	<defs>
		<path id="hole120"  stepSize="10" d="M 5,1 l 10,0 a 4,4,0,0,1,0,8 l -10,0 a 4,4,0,0,1,0,-8 Z" />
	</defs>

	<g style="stroke:black;" transform="scale(1,-1)">
		<path style="fill:#3d9ecb;"
			stepSize="10"
			d="M 0,9 l 0,20 19,0 5,19 6,0 0,-14 a 4,4,0,0,1,8,0 l 0,14 6,0 5,-19 19,0 0,-20 -19,0 -5,-9 -6,0 0,4 a 4,4,0,0,1,-8,0 l 0,-4 -6,0 -5,9 -19,0 Z" />
		<g style="fill:white;">
			<use xlink:href="#hole120" x="4"  y="14" />
			<use xlink:href="#hole120" x="44" y="14" />
		</g>
	</g>

</svg>

