<?xml version="1.0" encoding="UTF-8"?>
<!DOCTYPE svg PUBLIC "-//W3C//DTD SVG 1.1//EN" "http://www.w3.org/Graphics/SVG/1.1/DTD/svg11.dtd">

<svg	xmlns="http://www.w3.org/2000/svg"
		version="1.1"
		xmlns:xlink="http://www.w3.org/1999/xlink"
		viewBox="-1,-36,262,37">

	<title>Sheet_CR</title>

	<defs>
		<circle id="hole220" cx="10" cy="10" r="6" />
		<path id="hole22"   stepSize="10" d="M 0,0 l 20,0 0,20 -20,0 0,-20 Z" />
		<path id="hole120"  stepSize="10" d="M 5,1 l 10,0 a 4,4,0,0,1,0,8 l -10,0 a 4,4,0,0,1,0,-8 Z" />
	</defs>

	<g style="stroke:black;" transform="scale(1,-1)">
		<path style="fill:#3d9ecb;"
			stepSize="11"
			d="M 0,0 l 0,35 105,0 0,-5 10,0 0,5 30,0 0,-5 10,0 0,5 30,0 0,-5 10,0 0,5 30,0 0,-5 10,0 0,5 25,0 0,-35 -260,0 Z" />
		<g style="fill:white;">
			<use xlink:href="#hole220" x="0"   y="5"  />
			<use xlink:href="#hole22"  x="80"  y="10" />
			<use xlink:href="#hole120" x="120" y="15" />
			<use xlink:href="#hole22"  x="160" y="10" />
			<use xlink:href="#hole120" x="200" y="15" />
			<use xlink:href="#hole220" x="240" y="5"  />
		</g>
	</g>

</svg>

