<?xml version="1.0" encoding="UTF-8"?>
<!DOCTYPE svg PUBLIC "-//W3C//DTD SVG 1.1//EN" "http://www.w3.org/Graphics/SVG/1.1/DTD/svg11.dtd">

<svg	xmlns="http://www.w3.org/2000/svg"
		version="1.1"
		xmlns:xlink="http://www.w3.org/1999/xlink"
		viewBox="0,0,24,24">

	<title>Icon Clipping Fading Width</title>

	<style>
		.icon { fill: #000; }
	</style>
	<defs>
		<g id="clipFading" transform="translate(4,4)">
			<path d="M 10,1 l 0,2 1,0 0,-1 1,0 0,-1 -2,0 Z" />
			<path d="M 10,4 l 0,2 1,0 0,-2 -1,0 Z" />
			<path d="M 10,7 l 0,2 1,0 0,-2 -1,0 Z" />
			<path d="M 10,10 l 0,2 1,0 0,-2 -1,0 Z" />
			<path d="M 10,13 l 0,2 2,0 0,-1 -1,0 0,-1 -1,0 Z" />
			<path d="M 13,14 l 0,1 2,0 0,-1 -2,0 Z" />
			<path d="M 13,1 l 0,1 2,0 0,-1 -2,0 Z" />
			<path d="M 7,1 l 0,1 2,0 0,-1 -2,0 Z" />
			<path d="M 5,1 l 0,1 1,0 0,-1 -1,0 Z" />
			<path d="M 2,1 l 0,1 1,0 0,-1 -1,0 Z" />
			<path d="M 7,4 l 0,1 2,0 0,-1 -2,0 Z" />
			<path d="M 5,4 l 0,1 1,0 0,-1 -1,0 Z" />
			<path d="M 2,4 l 0,1 1,0 0,-1 -1,0 Z" />
			<path d="M 7,7 l 0,1 2,0 0,-1 -2,0 Z" />
			<path d="M 5,7 l 0,1 1,0 0,-1 -1,0 Z" />
			<path d="M 2,7 l 0,1 1,0 0,-1 -1,0 Z" />
			<path d="M 7,10 l 0,1 2,0 0,-1 -2,0 Z" />
			<path d="M 5,10 l 0,1 1,0 0,-1 -1,0 Z" />
			<path d="M 2,10 l 0,1 1,0 0,-1 -1,0 Z" />
			<path d="M 7,13 l 0,1 2,0 0,-1 -2,0 Z" />
			<path d="M 5,13 l 0,1 1,0 0,-1 -1,0 Z" />
			<path d="M 2,13 l 0,1 1,0 0,-1 -1,0 Z" />
		</g>
	</defs>

	<use xlink:href="#clipFading" class="icon" />

</svg>

