<?xml version="1.0" encoding="UTF-8"?>
<!DOCTYPE svg PUBLIC "-//W3C//DTD SVG 1.1//EN" "http://www.w3.org/Graphics/SVG/1.1/DTD/svg11.dtd">

<svg	xmlns="http://www.w3.org/2000/svg"
		version="1.1"
		xmlns:xlink="http://www.w3.org/1999/xlink"
		viewBox="0,0,24,24">

	<title>Icon Clip Change</title>

	<style>
		.icon { fill: #000; }
	</style>
	<defs>
		<g id="clipChange" transform="translate(4,4)">
			<path d="M 7 0 L 7 1 L 6 1 L 8 3 L 10 1 L 9 1 L 9 0 L 7 0 z M 4 4 L 4 6 L 5 6 L 5 5 L 6 5 L 6 4 L 4 4 z M 7 4 L 7 5 L 9 5 L 9 4 L 7 4 z M 10 4 L 10 5 L 11 5 L 11 6 L 12 6 L 12 4 L 10 4 z M 1 6 L 1 7 L 0 7 L 0 9 L 1 9 L 1 10 L 3 8 L 1 6 z M 15 6 L 13 8 L 15 10 L 15 9 L 16 9 L 16 7 L 15 7 L 15 6 z M 4 7 L 4 9 L 5 9 L 5 7 L 4 7 z M 11 7 L 11 9 L 12 9 L 12 7 L 11 7 z M 4 10 L 4 12 L 6 12 L 6 11 L 5 11 L 5 10 L 4 10 z M 11 10 L 11 11 L 10 11 L 10 12 L 12 12 L 12 10 L 11 10 z M 7 11 L 7 12 L 9 12 L 9 11 L 7 11 z M 8 13 L 6 15 L 7 15 L 7 16 L 9 16 L 9 15 L 10 15 L 8 13 z" />
		</g>
	</defs>

	<use xlink:href="#clipChange" class="icon" />

</svg>

