<?xml version="1.0" encoding="UTF-8"?>
<!DOCTYPE svg PUBLIC "-//W3C//DTD SVG 1.1//EN" "http://www.w3.org/Graphics/SVG/1.1/DTD/svg11.dtd">

<svg	xmlns="http://www.w3.org/2000/svg"
		version="1.1"
		xmlns:xlink="http://www.w3.org/1999/xlink"
		viewBox="0,0,24,24">

	<title>Icon Clipping Transparency</title>

	<style>
		.icon { fill: #000; }
	</style>
	<defs>
		<g id="clipTransp" transform="translate(4,4)">
			<path d="M 4,4 l 0,2 1,0 0,-1 1,0 0,-1 -2,0 Z" />
			<path d="M 4,7 l 0,2 1,0 0,-2 -1,0 Z" />
			<path d="M 4,10 l 0,2 2,0 0,-1 -1,0 0,-1 -1,0 Z" />
			<path d="M 7,11 l 0,1 2,0 0,-1 -2,0 Z" />
			<path d="M 10,11 l 0,1 2,0 0,-2 -1,0 0,1 -1,0 Z" />
			<path d="M 7,4 l 0,1 2,0 0,-1 -2,0 Z" />
			<path d="M 10,4 l 0,1 1,0 0,1 1,0 0,-2 -2,0 Z" />
			<path d="M 11,7 l 0,2 1,0 0,-2 -1,0 Z" />
			<path d="M 1,0 l -1,1 0,1 2,-2 -1,0 Z" />
			<path d="M 3,0 l -3,3 0,1 4,-4 -1,0 Z" />
			<path d="M 5,0 l -5,5 0,1 6,-6 -1,0 Z" />
			<path d="M 7,0 l -3,3 1,0 3,-3 -1,0 Z" />
			<path d="M 9,0 l -3,3 1,0 3,-3 -1,0 Z" />
			<path d="M 11,0 l -3,3 1,0 3,-3 -1,0 Z" />
			<path d="M 13,0 l -3,3 1,0 3,-3 -1,0 Z" />
			<path d="M 15,0 l -3,3 1,0 3,-3 -1,0 Z" />
			<path d="M 16,1 l -3,3 0,1 3,-3 0,-1 Z" />
			<path d="M 16,3 l -3,3 0,1 3,-3 0,-1 Z" />
			<path d="M 16,5 l -3,3 0,1 3,-3 0,-1 Z" />
			<path d="M 16,7 l -3,3 0,1 3,-3 0,-1 Z" />
			<path d="M 16,9 l -3,3 0,1 3,-3 0,-1 Z" />
			<path d="M 16,11 l -5,5 1,0 4,-4 0,-1 Z" />
			<path d="M 16,13 l -3,3 1,0 2,-2 0,-1 Z" />
			<path d="M 16,15 l -1,1 1,0 0,-1 Z" />
			<path d="M 12,13 l -3,3 1,0 3,-3 -1,0 Z" />
			<path d="M 10,13 l -3,3 1,0 3,-3 -1,0 Z" />
			<path d="M 8,13 l -3,3 1,0 3,-3 -1,0 Z" />
			<path d="M 6,13 l -3,3 1,0 3,-3 -1,0 Z" />
			<path d="M 4,13 l -3,3 1,0 3,-3 -1,0 Z" />
			<path d="M 3,12 l -3,3 0,1 3,-3 0,-1 Z" />
			<path d="M 3,10 l -3,3 0,1 3,-3 0,-1 Z" />
			<path d="M 3,8 l -3,3 0,1 3,-3 0,-1 Z" />
			<path d="M 3,6 l -3,3 0,1 3,-3 0,-1 Z" />
			<path d="M 3,4 l -3,3 0,1 3,-3 0,-1 Z" />
		</g>
	</defs>

	<use xlink:href="#clipTransp" class="icon" />

</svg>

