<?xml version="1.0" encoding="UTF-8"?>
<!DOCTYPE svg PUBLIC "-//W3C//DTD SVG 1.1//EN" "http://www.w3.org/Graphics/SVG/1.1/DTD/svg11.dtd">

<svg	xmlns="http://www.w3.org/2000/svg"
		version="1.1"
		xmlns:xlink="http://www.w3.org/1999/xlink"
		viewBox="0,0,24,24">

	<title>Icon Layer B</title>

	<style>
		.icon { fill: #000; }
	</style>
	<defs>
		<g id="layerB" transform="translate(4,4)">
				<path d="M 3,0 l -3,3 2,0 0,10 -2,0 3,3 3,-3 -2,0 0,-10 2,0 -3,-3 Z" />
				<path d="M 8,0 l 0,1 8,0 0,-1 -8,0 Z" />
				<path d="M 8,13 l 0,1 8,0 0,-1 -8,0 Z" />
				<path d="M 8,15 l 0,1 8,0 0,-1 -8,0 Z" />
				<!--<text style="font-family: sans-serif; font-weight: bold; font-size: 12;" x="7.5" y="11.5">B</text>-->
				<path d="m 8.378906,2.9101562 3.433594,0 c 0.679683,8.6e-6 1.185541,0.029305 1.517578,0.087891 0.335931,0.054696 0.634759,0.1718833 0.896484,0.3515625 0.265619,0.1796954 0.486321,0.4199296 0.66211,0.7207031 0.175774,0.2968821 0.263664,0.6308662 0.263672,1.0019531 -8e-6,0.4023498 -0.109383,0.7714901 -0.328125,1.1074221 -0.214851,0.335942 -0.50782,0.587895 -0.878907,0.755859 0.523431,0.152348 0.925774,0.412113 1.207032,0.779297 0.281242,0.367191 0.421867,0.798831 0.421875,1.294922 -8e-6,0.390627 -0.09181,0.771486 -0.275391,1.142578 -0.179695,0.367188 -0.427742,0.66211 -0.744141,0.884765 -0.312506,0.218751 -0.699225,0.353516 -1.160156,0.404297 -0.289068,0.03125 -0.986333,0.05078 -2.091797,0.05859 l -2.923828,0 0,-8.5898435 m 1.734375,1.4296876 0,1.9863279 1.136719,0 c 0.675777,5e-6 1.095698,-0.0098 1.259766,-0.0293 0.296869,-0.03515 0.529291,-0.136713 0.697265,-0.3046872 0.171869,-0.1718693 0.257807,-0.3964785 0.257813,-0.6738281 -6e-6,-0.2656186 -0.07422,-0.4804621 -0.222657,-0.6445313 -0.144536,-0.1679617 -0.361333,-0.2695241 -0.65039,-0.3046875 -0.17188,-0.019524 -0.66602,-0.02929 -1.482422,-0.029297 l -0.996094,0 m 0,3.4160151 0,2.296875 1.605469,0 c 0.624995,2e-6 1.021479,-0.01758 1.189453,-0.05273 0.257807,-0.04687 0.466791,-0.160155 0.626953,-0.339844 0.164057,-0.183591 0.246088,-0.427732 0.246094,-0.732422 -6e-6,-0.257809 -0.06251,-0.476559 -0.1875,-0.65625 -0.125006,-0.179684 -0.306646,-0.310543 -0.544922,-0.392578 -0.23438,-0.08203 -0.746098,-0.123043 -1.535156,-0.123047 l -1.400391,0" />
		</g>
	</defs>

	<use xlink:href="#layerB" class="icon" />

</svg>

