<?xml version="1.0" encoding="UTF-8"?>
<!DOCTYPE svg PUBLIC "-//W3C//DTD SVG 1.1//EN" "http://www.w3.org/Graphics/SVG/1.1/DTD/svg11.dtd">

<svg	xmlns="http://www.w3.org/2000/svg"
		version="1.1"
		xmlns:xlink="http://www.w3.org/1999/xlink"
		viewBox="0,0,24,24">

	<title>Icon Select</title>

	<style>
		.icon { fill: #000; }
	</style>
	<defs>
		<g id="select" transform="translate(4,4)">
			<path style="fill:#f83610;" d="m 1,1 0,3 3.75,0 0,-1 C 4.75,2.6666667 4.8982163,2.3517837 5.125,2.125 5.3517837,1.8982163 5.6666667,1.75 6,1.75 6.333333,1.75 6.648216,1.8982163 6.875,2.125 7.101784,2.3517837 7.25,2.6666667 7.25,3 l 0,1 L 15,4 15,1 1,1 z" />
			<path d="m 6,2.25 c 0.166667,0 0.351784,0.1017837 0.5,0.25 0.148216,0.1482163 0.25,0.3333333 0.25,0.5 l 0,3 0,2 0.5,0 0,-2 C 7.25,5.8333333 7.351784,5.6482163 7.5,5.5 7.648216,5.3517837 7.833333,5.25 8,5.25 8.166667,5.25 8.351784,5.3517837 8.5,5.5 8.648216,5.6482163 8.75,5.8333333 8.75,6 l 0,1 0,1 0.5,0 0,-1 C 9.25,6.833333 9.351784,6.648216 9.5,6.5 9.648216,6.351784 9.833333,6.25 10,6.25 c 0.166667,0 0.351784,0.101784 0.5,0.25 0.148216,0.148216 0.25,0.333333 0.25,0.5 l 0,1 0,1 0.5,0 0,-1 c 0,-0.166667 0.101784,-0.351784 0.25,-0.5 0.148216,-0.148216 0.333333,-0.25 0.5,-0.25 0.166667,0 0.351784,0.101784 0.5,0.25 0.148216,0.148216 0.25,0.333333 0.25,0.5 l 0,2.9375 0,0.0625 -0.9375,3.75 -6.5625,0 0,-0.75 0,-0.03125 0,-0.0625 -1,-3 L 4.21875,10.875 2.28125,7.96875 C 2.2937082,7.810935 2.3628999,7.6371 2.5,7.5 2.6482163,7.351784 2.8333333,7.25 3,7.25 c 0.8761062,0 1.2788979,0.403979 1.75,0.875 l 0,1.875 0.5,0 0,-2 0,-0.09375 L 5.25,3 C 5.25,2.8333333 5.3517837,2.6482163 5.5,2.5 5.6482163,2.3517837 5.8333333,2.25 6,2.25 z" />
		</g>
	</defs>

	<use xlink:href="#select" class="icon" />

</svg>

